<svg width="1440" height="659" viewBox="0 0 1440 659" fill="none" xmlns="http://www.w3.org/2000/svg">
    <g clip-path="url(#clip0_111_1966)">
        <g opacity="0.3" filter="url(#filter0_f_111_1966)">
            <path
                d="M652.737 525.419C709.688 533.012 729.622 480.987 805.499 501C901.255 526.257 1193.94 336.74 1176 450C1152 601.5 811.745 829.652 682.922 812.478C554.099 795.303 483.898 765.925 459.941 733.781C407.742 663.744 523.914 508.245 652.737 525.419Z"
                fill="url(#paint0_linear_111_1966)" />
            <path
                d="M674.107 526.743C810.041 549.49 975 608 823.465 678.864C805.171 703.795 626.217 735.971 490.283 713.225C354.349 690.478 244.579 428.393 281 343.501C317.423 258.609 538.173 503.996 674.107 526.743Z"
                fill="url(#paint1_linear_111_1966)" />
        </g>
    </g>
    <defs>
        <filter id="filter0_f_111_1966" x="-26.0566" y="25.7178" width="1502.85" height="1087.68"
            filterUnits="userSpaceOnUse" color-interpolation-filters="sRGB">
            <feFlood flood-opacity="0" result="BackgroundImageFix" />
            <feBlend mode="normal" in="SourceGraphic" in2="BackgroundImageFix" result="shape" />
            <feGaussianBlur stdDeviation="150" result="effect1_foregroundBlur_111_1966" />
        </filter>
        <linearGradient id="paint0_linear_111_1966" x1="1129.36" y1="559.477" x2="844.41"
            y2="760.66" gradientUnits="userSpaceOnUse">
            <stop stop-color="#00E0FF" />
            <stop offset="0.065" stop-color="#58E5FF" />
            <stop offset="0.205" stop-color="#55595A" />
            <stop offset="0.455" stop-color="#34BDFF" />
            <stop offset="1" stop-color="#001629" />
        </linearGradient>
        <linearGradient id="paint1_linear_111_1966" x1="482.699" y1="369.185" x2="692.901"
            y2="589.116" gradientUnits="userSpaceOnUse">
            <stop stop-color="#FFB951" />
            <stop offset="1" stop-color="#0CF900" />
        </linearGradient>
        <clipPath id="clip0_111_1966">
            <rect width="1440" height="659" fill="white" transform="matrix(-1 0 0 1 1440 0)" />
        </clipPath>
    </defs>
</svg>
    