<svg width="16" height="16" viewBox="0 0 24 24" fill="none" xmlns="http://www.w3.org/2000/svg">
<path fill-rule="evenodd" clip-rule="evenodd" d="M3.7756 0.00875392L3.77789 0.00907887L3.78137 0.00957879L3.79182 0.0111147L3.82634 0.016408C3.85524 0.0209525 3.89576 0.0275752 3.94663 0.036508C4.04831 0.0543599 4.19183 0.0815202 4.36705 0.11988C4.71631 0.19634 5.19769 0.318638 5.72796 0.503008C6.58005 0.799275 7.65832 1.28942 8.48723 2.08662C9.5299 1.68762 10.721 1.49594 11.8879 1.49028L11.9032 1.49016L11.9221 1.49017L11.941 1.49016L11.9563 1.49028C13.1232 1.49594 14.3144 1.68762 15.357 2.08662C16.1859 1.28942 17.2642 0.799275 18.1163 0.503008C18.6465 0.318638 19.1279 0.19634 19.4772 0.11988C19.6524 0.0815202 19.7959 0.0543599 19.8976 0.036508C19.9485 0.0275752 19.989 0.0209525 20.0179 0.016408L20.0524 0.0111147L20.0628 0.00957879L20.0663 0.00907887L20.0686 0.00875392C20.517 -0.0543562 20.941 0.22976 21.052 0.66767C21.3215 1.73176 21.2845 2.87489 21.0778 3.87426C20.9339 4.56992 20.6973 5.24553 20.3839 5.80605C21.2842 6.93803 22.008 8.4558 21.9999 9.96313C21.9858 12.6187 21.1196 14.4113 19.6786 15.5663C18.6675 16.3768 17.4381 16.8182 16.1992 17.0784C16.2401 17.1702 16.2779 17.2636 16.3125 17.3583C16.5196 17.9256 16.6068 18.5293 16.5689 19.1317V23.1158C16.5689 23.6041 16.172 24 15.6824 24C15.1928 24 14.7959 23.6041 14.7959 23.1158V19.1024C14.7959 19.0817 14.7966 19.061 14.7981 19.0404C14.8239 18.6747 14.7722 18.3077 14.6465 17.9633C14.5207 17.6189 14.3238 17.3048 14.0684 17.0415C13.8348 16.8006 13.7579 16.4486 13.8697 16.1326C13.9815 15.8165 14.2629 15.5907 14.5963 15.5493C16.1867 15.3522 17.5759 14.983 18.568 14.1878C19.5087 13.4339 20.215 12.1946 20.227 9.95374C20.2331 8.79928 19.5404 7.43988 18.6291 6.48457C18.3186 6.15912 18.3022 5.65319 18.5908 5.30836C18.8734 4.9708 19.1734 4.32902 19.3414 3.51694C19.4475 3.0036 19.4923 2.46268 19.4604 1.94245C19.2321 2.00204 18.9729 2.07793 18.6999 2.17287C17.77 2.4962 16.8235 2.99141 16.294 3.68702C16.0361 4.0259 15.5728 4.13351 15.1913 3.94315C14.3076 3.50215 13.1353 3.26109 11.9221 3.25859C10.7089 3.26109 9.5367 3.50215 8.65291 3.94315C8.27143 4.13351 7.80811 4.0259 7.55019 3.68702C7.02076 2.99141 6.07426 2.4962 5.14435 2.17287C4.87129 2.07793 4.61213 2.00204 4.38382 1.94245C4.35188 2.46268 4.39668 3.0036 4.50286 3.51694C4.67084 4.32902 4.9708 4.9708 5.25338 5.30836C5.54205 5.65319 5.5256 6.15912 5.21513 6.48457C4.30381 7.43988 3.61109 8.79928 3.61724 9.95374C3.62917 12.1946 4.33551 13.4339 5.27619 14.1878C6.26828 14.983 7.65753 15.3522 9.2479 15.5493C9.5814 15.5907 9.8627 15.8165 9.9745 16.1326C10.0864 16.4486 10.0094 16.8006 9.7758 17.0415C9.5204 17.3048 9.3235 17.6189 9.1977 17.9633C9.072 18.3077 9.0203 18.6747 9.0461 19.0404C9.0476 19.061 9.0483 19.0817 9.0483 19.1024V23.1158C9.0483 23.6041 8.6514 24 8.16181 24C7.67221 24 7.27532 23.6041 7.27532 23.1158V20.4865C6.33065 20.6283 5.52239 20.582 4.81505 20.3857C3.93128 20.1404 3.27823 19.6813 2.75918 19.2014C2.50334 18.9648 2.27659 18.7199 2.07595 18.4974C2.02395 18.4397 1.97451 18.3845 1.92689 18.3313C1.78288 18.1705 1.65542 18.0282 1.52344 17.8922C1.17433 17.5325 0.924189 17.3608 0.671569 17.2977C0.196609 17.1792 -0.0921036 16.6991 0.0267094 16.2254C0.145519 15.7516 0.626869 15.4637 1.10183 15.5822C1.84719 15.7682 2.38378 16.2361 2.79732 16.6622C2.95652 16.8262 3.11693 17.0054 3.26634 17.1723C3.30997 17.2211 3.35267 17.2688 3.39412 17.3147C3.58617 17.5277 3.7695 17.7242 3.9645 17.9045C4.34714 18.2582 4.75892 18.5345 5.29027 18.682C5.76735 18.8143 6.39899 18.8588 7.26974 18.6939C7.28676 18.2388 7.37487 17.788 7.53177 17.3583C7.56634 17.2636 7.60412 17.1702 7.64503 17.0784C6.40607 16.8182 5.17675 16.3768 4.1656 15.5663C2.72459 14.4113 1.85843 12.6187 1.84428 9.96313C1.83625 8.4558 2.55999 6.93803 3.46031 5.80605C3.14695 5.24553 2.91034 4.56992 2.76645 3.87426C2.55974 2.87489 2.52269 1.73176 2.79226 0.66767C2.9032 0.22976 3.3272 -0.0543562 3.7756 0.00875392Z" fill="white"/>
</svg>
