<svg width="123" height="48" viewBox="0 0 123 48" fill="none" xmlns="http://www.w3.org/2000/svg">
<path fill-rule="evenodd" clip-rule="evenodd" d="M69.176 30.082C66.3506 30.1642 54.9159 30.7988 51.7769 32.3753C51.179 32.6756 50.8396 33.1326 51.0756 33.6346C51.348 34.214 51.9449 34.0097 52.6175 33.6719C53.6295 33.1637 54.7442 32.9539 55.8556 32.7448C55.9754 32.7223 56.0951 32.6997 56.2146 32.6769C61.0174 31.888 66.8741 31.5723 71.7795 31.5912C73.4335 31.5721 76.2385 31.6433 77.8145 31.9497C78.0648 31.9998 78.2822 32.1938 78.4953 32.3841C78.8036 32.6591 79.1027 32.9261 79.4783 32.7374C79.8894 32.531 80.137 31.9769 79.9191 31.5134C79.0641 29.695 71.7353 29.9819 69.4315 30.0721C69.3377 30.0758 69.2523 30.0792 69.176 30.082Z" fill="url(#paint0_linear_10_115)"/>
<path fill-rule="evenodd" clip-rule="evenodd" d="M69.176 30.082C66.3506 30.1642 54.9159 30.7988 51.7769 32.3753C51.179 32.6756 50.8396 33.1326 51.0756 33.6346C51.348 34.214 51.9449 34.0097 52.6175 33.6719C53.6295 33.1637 54.7442 32.9539 55.8556 32.7448C55.9754 32.7223 56.0951 32.6997 56.2146 32.6769C61.0174 31.888 66.8741 31.5723 71.7795 31.5912C73.4335 31.5721 76.2385 31.6433 77.8145 31.9497C78.0648 31.9998 78.2822 32.1938 78.4953 32.3841C78.8036 32.6591 79.1027 32.9261 79.4783 32.7374C79.8894 32.531 80.137 31.9769 79.9191 31.5134C79.0641 29.695 71.7353 29.9819 69.4315 30.0721C69.3377 30.0758 69.2523 30.0792 69.176 30.082Z" fill="url(#paint1_linear_10_115)"/>
<path fill-rule="evenodd" clip-rule="evenodd" d="M13.9544 26.915C13.9103 26.6781 13.7787 26.4675 13.5866 26.3267C13.5091 26.2446 13.4125 26.1837 13.3059 26.1496C13.1991 26.1156 13.0858 26.1095 12.9761 26.1318C12.8725 26.1534 12.7747 26.1982 12.6902 26.263C12.6055 26.3278 12.5362 26.411 12.487 26.5065L12.2369 26.9187C12.1046 27.166 11.9574 27.4208 11.7919 27.6981C11.6264 27.9754 11.586 28.0728 11.5677 28.1102L10.6041 29.6878C10.2743 30.2335 9.86795 30.7271 9.39784 31.1529C9.17247 31.3884 8.89865 31.5701 8.5961 31.6849C8.54829 31.6849 8.52624 31.6849 8.52257 31.6849C8.48933 31.6413 8.46777 31.5897 8.46003 31.5351C8.42081 31.3366 8.40599 31.134 8.4159 30.9318C8.44533 30.6283 8.47474 30.336 8.50416 30.0662C8.60376 29.4639 8.74384 28.8692 8.92342 28.2864C9.11833 27.6456 9.3206 27.0349 9.53022 26.4653L9.98629 25.1389C10.1356 24.7593 10.2406 24.3631 10.2988 23.9585C10.4132 23.3987 10.4132 22.8209 10.2988 22.2611C10.2495 21.9941 10.1103 21.753 9.90532 21.5792C9.78195 21.4707 9.63262 21.3973 9.47249 21.3664C9.31236 21.3355 9.1471 21.3481 8.99331 21.4031C8.63637 21.5171 8.32203 21.7393 8.09228 22.04C7.82013 22.3286 7.50387 22.6396 7.13978 22.9768C6.7757 23.314 6.03651 23.5876 5.76437 23.4152C5.49223 23.2429 5.60993 22.7744 5.68715 22.4972C5.85843 21.8557 5.98138 21.2018 6.05492 20.5412C6.15511 19.9951 6.15511 19.4348 6.05492 18.8888C5.85632 18.0157 5.24584 18.0607 4.99208 18.1393C4.75599 18.208 4.53766 18.329 4.35268 18.4935C4.1677 18.658 4.02062 18.8621 3.92189 19.0911C3.64037 19.608 3.42885 20.1613 3.29304 20.7361C3.15726 21.3671 3.07603 22.0091 3.0503 22.6546C3.03858 23.2061 3.09917 23.7568 3.2305 24.292C2.9843 25.1309 2.68956 25.9542 2.34787 26.7576C1.98011 27.6831 1.58294 28.5787 1.16737 29.418C0.751806 30.2573 0.43185 30.943 0.104544 31.5013C0.000716601 31.6949 -0.0270199 31.9213 0.0269248 32.1349C0.0808693 32.3485 0.212476 32.5333 0.395089 32.6517C0.906274 32.9477 1.49834 32.543 1.7006 32.277C2.09115 31.7002 2.44024 31.0953 2.74508 30.4672C3.16064 29.6953 3.57253 28.8335 3.97707 27.9079C4.34482 27.0461 4.65007 26.1993 4.90383 25.3824C5.36797 25.4072 5.83309 25.3592 6.28292 25.24C6.76404 25.1224 7.2295 24.9463 7.66934 24.7154C7.82718 24.6298 7.98061 24.536 8.12904 24.4344C7.96355 25.0189 7.76132 25.6447 7.52227 26.3079C7.16466 27.3166 6.86743 28.3464 6.63228 29.3917C6.38609 30.3735 6.37097 31.4006 6.58815 32.3894C6.62991 32.6184 6.71992 32.8355 6.85199 33.0257C6.98404 33.2159 7.15498 33.3747 7.35307 33.491C7.6046 33.6218 7.88348 33.6887 8.16586 33.6859C8.33806 33.6843 8.5095 33.663 8.67699 33.6222C9.21704 33.4908 9.72512 33.2485 10.1702 32.9102C10.6642 32.5198 11.1133 32.0735 11.5088 31.58C11.8766 31.0854 12.3215 30.4559 12.7923 29.7065C13.2082 29.0742 13.5664 28.4044 13.8624 27.7056C13.9868 27.4623 14.0194 27.1811 13.9544 26.915Z" fill="black"/>
<path fill-rule="evenodd" clip-rule="evenodd" d="M13.9544 26.915C13.9103 26.6781 13.7787 26.4675 13.5866 26.3267C13.5091 26.2446 13.4125 26.1837 13.3059 26.1496C13.1991 26.1156 13.0858 26.1095 12.9761 26.1318C12.8725 26.1534 12.7747 26.1982 12.6902 26.263C12.6055 26.3278 12.5362 26.411 12.487 26.5065L12.2369 26.9187C12.1046 27.166 11.9574 27.4208 11.7919 27.6981C11.6264 27.9754 11.586 28.0728 11.5677 28.1102L10.6041 29.6878C10.2743 30.2335 9.86795 30.7271 9.39784 31.1529C9.17247 31.3884 8.89865 31.5701 8.5961 31.6849C8.54829 31.6849 8.52624 31.6849 8.52257 31.6849C8.48933 31.6413 8.46777 31.5897 8.46003 31.5351C8.42081 31.3366 8.40599 31.134 8.4159 30.9318C8.44533 30.6283 8.47474 30.336 8.50416 30.0662C8.60376 29.4639 8.74384 28.8692 8.92342 28.2864C9.11833 27.6456 9.3206 27.0349 9.53022 26.4653L9.98629 25.1389C10.1356 24.7593 10.2406 24.3631 10.2988 23.9585C10.4132 23.3987 10.4132 22.8209 10.2988 22.2611C10.2495 21.9941 10.1103 21.753 9.90532 21.5792C9.78195 21.4707 9.63262 21.3973 9.47249 21.3664C9.31236 21.3355 9.1471 21.3481 8.99331 21.4031C8.63637 21.5171 8.32203 21.7393 8.09228 22.04C7.82013 22.3286 7.50387 22.6396 7.13978 22.9768C6.7757 23.314 6.03651 23.5876 5.76437 23.4152C5.49223 23.2429 5.60993 22.7744 5.68715 22.4972C5.85843 21.8557 5.98138 21.2018 6.05492 20.5412C6.15511 19.9951 6.15511 19.4348 6.05492 18.8888C5.85632 18.0157 5.24584 18.0607 4.99208 18.1393C4.75599 18.208 4.53766 18.329 4.35268 18.4935C4.1677 18.658 4.02062 18.8621 3.92189 19.0911C3.64037 19.608 3.42885 20.1613 3.29304 20.7361C3.15726 21.3671 3.07603 22.0091 3.0503 22.6546C3.03858 23.2061 3.09917 23.7568 3.2305 24.292C2.9843 25.1309 2.68956 25.9542 2.34787 26.7576C1.98011 27.6831 1.58294 28.5787 1.16737 29.418C0.751806 30.2573 0.43185 30.943 0.104544 31.5013C0.000716601 31.6949 -0.0270199 31.9213 0.0269248 32.1349C0.0808693 32.3485 0.212476 32.5333 0.395089 32.6517C0.906274 32.9477 1.49834 32.543 1.7006 32.277C2.09115 31.7002 2.44024 31.0953 2.74508 30.4672C3.16064 29.6953 3.57253 28.8335 3.97707 27.9079C4.34482 27.0461 4.65007 26.1993 4.90383 25.3824C5.36797 25.4072 5.83309 25.3592 6.28292 25.24C6.76404 25.1224 7.2295 24.9463 7.66934 24.7154C7.82718 24.6298 7.98061 24.536 8.12904 24.4344C7.96355 25.0189 7.76132 25.6447 7.52227 26.3079C7.16466 27.3166 6.86743 28.3464 6.63228 29.3917C6.38609 30.3735 6.37097 31.4006 6.58815 32.3894C6.62991 32.6184 6.71992 32.8355 6.85199 33.0257C6.98404 33.2159 7.15498 33.3747 7.35307 33.491C7.6046 33.6218 7.88348 33.6887 8.16586 33.6859C8.33806 33.6843 8.5095 33.663 8.67699 33.6222C9.21704 33.4908 9.72512 33.2485 10.1702 32.9102C10.6642 32.5198 11.1133 32.0735 11.5088 31.58C11.8766 31.0854 12.3215 30.4559 12.7923 29.7065C13.2082 29.0742 13.5664 28.4044 13.8624 27.7056C13.9868 27.4623 14.0194 27.1811 13.9544 26.915Z" fill="black"/>
<path fill-rule="evenodd" clip-rule="evenodd" d="M25.3778 23.4513C25.608 23.4351 25.8358 23.5073 26.0165 23.6536C26.1366 23.7358 26.2377 23.8438 26.3124 23.9701C26.3871 24.0964 26.4337 24.2379 26.4488 24.3845C26.4604 24.7425 26.3335 25.0909 26.0952 25.3543C24.1252 27.7182 19.834 32.234 15.4705 32.6408C15.0275 32.6915 14.5791 32.6496 14.1526 32.5175C13.7262 32.3854 13.3306 32.1661 12.9903 31.8728C12.65 31.5796 12.3721 31.2186 12.1734 30.8121C11.9748 30.4055 11.8597 29.9619 11.8352 29.5085C11.5823 26.656 14.3526 21.1943 17.3242 20.9227C18.356 20.8269 19.5581 21.7692 19.6772 23.122C19.9166 25.7953 17.052 27.6468 15.1241 27.8271C14.9556 27.8381 14.7909 27.8829 14.6393 27.959C14.4878 28.035 14.3525 28.1408 14.2411 28.2703C14.1298 28.3998 14.0448 28.5503 13.9908 28.7134C13.9367 28.8765 13.9148 29.0488 13.9263 29.2205C13.9462 29.4277 14.0073 29.6286 14.106 29.8108C14.2048 29.993 14.3392 30.1527 14.5008 30.2801C14.6624 30.4074 14.8478 30.4997 15.0458 30.5513C15.2437 30.603 15.4499 30.6127 15.6517 30.5802C19.0473 30.2674 22.3387 26.6203 24.3322 24.1557C24.5834 23.7973 24.9559 23.5464 25.3778 23.4513ZM17.1552 23.4184C16.7072 23.4627 15.6985 24.5829 15.7357 24.9904C15.7359 25.0141 15.7413 25.0374 15.7515 25.0587C15.7617 25.08 15.7764 25.0987 15.7947 25.1134C15.8128 25.1281 15.8341 25.1385 15.8568 25.1437C15.8794 25.1489 15.903 25.1489 15.9256 25.1437C16.5657 25.0821 17.3687 23.8041 17.3491 23.5718C17.3484 23.5479 17.3425 23.5245 17.3318 23.5032C17.3212 23.482 17.306 23.4634 17.2876 23.4487C17.269 23.4341 17.2476 23.4237 17.2247 23.4185C17.2018 23.4133 17.1781 23.4132 17.1552 23.4184Z" fill="black"/>
<path fill-rule="evenodd" clip-rule="evenodd" d="M40.4202 22.0674C40.6745 22.0657 40.921 22.1561 41.116 22.3225C41.3108 22.489 41.4412 22.7206 41.4839 22.9761C41.4938 23.3623 41.356 23.7372 41.0998 24.0219C39.9667 25.3852 36.138 29.6785 33.4983 29.9218C32.5584 30.0088 31.7685 29.5814 31.303 28.3294C31.0956 27.7734 31.0912 25.9983 30.5593 26.0476C30.1314 26.0846 29.5417 27.0822 29.3493 27.335C28.6095 28.2945 26.4171 30.5202 24.8094 30.6677C23.8734 30.7549 23.1804 29.9575 23.0695 28.7105C22.8482 26.2003 24.9363 21.9806 27.6161 21.7307C28.8799 21.6151 29.6434 22.5613 30.1513 22.5151C30.9912 22.4366 31.2445 20.2568 32.2766 20.157C32.4134 20.151 32.5502 20.1726 32.6789 20.2206C32.8075 20.2687 32.9257 20.3422 33.0265 20.4369C33.1272 20.5316 33.2085 20.6457 33.2657 20.7725C33.3231 20.8994 33.3552 21.0365 33.3603 21.176C33.5112 22.8672 32.7812 24.3308 32.9612 26.3236C33.0183 26.9553 33.1122 27.7873 33.7081 27.7322C35.9078 27.5295 38.2194 24.1953 39.3955 22.7402C39.6413 22.3921 40.0074 22.1517 40.4202 22.0674ZM25.1756 27.891C25.17 28.0492 25.2346 28.1369 25.3946 28.1225C26.2186 28.0434 28.7491 25.2779 28.6778 24.4832C28.6493 24.1654 28.2088 23.9987 27.7727 24.0435C26.5289 24.1558 25.0721 26.5509 25.1756 27.891Z" fill="black"/>
<path d="M42.1196 31.2137C41.3138 31.2285 41.1664 30.1101 41.1419 28.6755C41.0751 24.9688 42.7479 15.746 42.994 14.3254C43.7354 10.1979 45.665 3.60837 45.6245 1.28362C45.6127 0.608953 45.3598 -0.0137561 44.6418 0.000231243C43.7561 0.0201865 43.4107 1.54268 43.2779 2.24854C42.5134 6.35492 39.0128 22.4391 39.1312 29.0558C39.1628 31.5183 39.8034 33.5607 41.762 33.5237C44.6301 33.4716 47.5136 26.9622 48.7562 24.088L49.5 23L50 22V21.5V21L49.5 20.5L48.7562 21C47.7318 22.4485 44.1142 31.1739 42.1196 31.2137Z" fill="black"/>
<path fill-rule="evenodd" clip-rule="evenodd" d="M46.8894 29.3351C49.3587 29.2885 55.7649 22.5889 55.6728 17.8009C55.6475 16.2768 55.0212 15.1732 53.9282 15.1936C49.3807 15.2808 46.2859 25.8116 46.3338 28.5955C46.3503 29.1404 46.5664 29.3393 46.8894 29.3351Z" fill="url(#paint2_linear_10_115)"/>
<path fill-rule="evenodd" clip-rule="evenodd" d="M44.2586 45.6221C44.0375 46.1216 43.6219 47.0444 43.0116 47.0542C42.1301 47.0703 41.9403 45.9098 41.9208 44.8936C41.8489 40.7684 43.1504 34.0175 43.1336 33.2615C43.1254 32.8225 43.01 32.7045 42.7546 32.7113C42.4993 32.7181 41.9227 32.8998 41.2765 32.9124C40.4348 32.9258 40.0091 32.4592 40 31.9308C40.0046 31.6993 40.0824 31.4755 40.2217 31.2926C40.3611 31.1097 40.5547 30.9775 40.7738 30.9157C42.599 30.2604 43.6464 31.2944 44.3435 28.404C44.5962 27.3573 44.7397 26.2416 44.998 25.1505C46.0379 20.8106 48.5896 13.0988 53.9427 13.0009C56.4279 12.9549 57.7056 14.7935 57.7681 17.509C57.8892 24.1623 52.5905 29.2053 47.574 31.2613C44.8925 32.3438 44.7 37.9539 44.7166 38.8277C44.7089 39.0427 44.7479 39.2919 44.8277 39.2908L44.2586 45.6221ZM55.6728 17.8009C55.7649 22.5889 49.3587 29.2885 46.8894 29.3351C46.5664 29.3393 46.3503 29.1404 46.3338 28.5955C46.2859 25.8116 49.3807 15.2808 53.9282 15.1936C55.0212 15.1732 55.6475 16.2768 55.6728 17.8009Z" fill="black"/>
<path d="M120.596 26.7712C120.899 26.6564 121.172 26.4747 121.398 26.2392H121.53C122.145 26.0624 122.299 26.9149 122.299 27.3633V27.893L122 28.1866L121.398 28.5773L120.677 28.7085C120.51 28.7493 120.338 28.7706 120.166 28.7722C119.883 28.775 119.605 28.7081 119.353 28.5773C119.155 28.461 118.984 28.3022 118.852 28.112C118.72 27.9218 118.63 27.7047 118.588 27.4757C118.371 26.4869 118.386 25.4598 118.632 24.478C118.867 23.4327 119.165 22.4029 119.522 21.3942C119.761 20.731 119.964 20.1052 120.129 19.5207C119.981 19.6223 120.692 18.5015 119.522 18.6866C119 18.6866 118.481 18.569 118 18.6866C117.55 18.8058 117.368 20.4935 116.904 20.4687C116.65 21.2856 116.345 22.1324 115.977 22.9942C115.573 23.9198 115.161 24.7816 114.745 25.5535C114.44 26.1816 114.091 26.7865 113.701 27.3633C113.498 27.6293 112.906 28.034 112.395 27.738C112.212 27.6196 112.081 27.4348 112.027 27.2212C111.973 27.0076 112.001 26.7812 112.105 26.5876C112.432 26.0293 112.752 25.3436 113.167 24.5043C113.583 23.665 113.98 22.7694 114.348 21.8439C114.69 21.0405 114.984 20.3596 115.23 19.5207V18.5015C115.329 18.2725 115.476 18.0684 115.661 17.9039C115.846 17.7394 116.054 17.4161 116.29 17.3474C116.544 17.2688 116.5 16.6866 117.5 16.6866L118.632 16.4894C119.5 16.1866 119 16.1866 120.129 16H120.953L121.905 16.4895C122.11 16.6633 122.249 17.0804 122.299 17.3474C122.413 17.9072 122.413 18.485 122.299 19.0448C122.241 19.4494 122.136 19.8456 121.986 20.2252L121.53 21.5516C121.321 22.1212 121.118 22.7319 120.923 23.3727C120.744 23.9555 120.604 24.5502 120.504 25.1525C120.475 25.4223 120.445 25.7146 120.416 26.0181C120.406 26.2203 120.421 26.4229 120.46 26.6214C120.468 26.676 120.489 26.7276 120.523 26.7712H120.596Z" fill="black"/>
<path fill-rule="evenodd" clip-rule="evenodd" d="M106.559 18.5353C106.789 18.5191 107.017 18.5913 107.197 18.7376C107.318 18.8198 107.419 18.9278 107.493 19.0541C107.568 19.1804 107.615 19.3219 107.63 19.4685C107.641 19.8265 107.514 20.1749 107.276 20.4383C105.306 22.8022 101.015 27.318 96.6514 27.7248C96.2084 27.7755 95.76 27.7336 95.3335 27.6015C94.9071 27.4694 94.5116 27.2501 94.1713 26.9568C93.8309 26.6636 93.553 26.3026 93.3543 25.8961C93.1557 25.4895 93.0406 25.0459 93.0161 24.5925C92.7632 21.74 95.5335 16.2783 98.5051 16.0067C99.5369 15.9109 100.739 16.8532 100.858 18.206C101.097 20.8793 98.2329 22.7308 96.305 22.9111C96.1365 22.9221 95.9718 22.9669 95.8202 23.043C95.6687 23.119 95.5334 23.2248 95.422 23.3543C95.3107 23.4838 95.2257 23.6343 95.1717 23.7974C95.1176 23.9605 95.0958 24.1328 95.1072 24.3045C95.1271 24.5117 95.1882 24.7126 95.2869 24.8948C95.3857 25.077 95.5201 25.2367 95.6817 25.3641C95.8433 25.4914 96.0287 25.5837 96.2267 25.6353C96.4246 25.687 96.6308 25.6967 96.8326 25.6642C100.228 25.3514 103.52 21.7043 105.513 19.2397C105.764 18.8813 106.137 18.6304 106.559 18.5353ZM98.3361 18.5024C97.8881 18.5467 96.8794 19.6669 96.9166 20.0744C96.9168 20.0981 96.9222 20.1214 96.9324 20.1427C96.9426 20.164 96.9573 20.1827 96.9756 20.1974C96.9937 20.2121 97.015 20.2225 97.0377 20.2277C97.0603 20.2329 97.0839 20.2329 97.1065 20.2277C97.7466 20.1661 98.5496 18.8881 98.53 18.6558C98.5293 18.6319 98.5234 18.6085 98.5127 18.5872C98.5021 18.566 98.4869 18.5474 98.4685 18.5327C98.4499 18.5181 98.4285 18.5077 98.4057 18.5025C98.3827 18.4973 98.359 18.4972 98.3361 18.5024Z" fill="black"/>
<path fill-rule="evenodd" clip-rule="evenodd" d="M96.7323 21.9693C96.7482 22.7497 95.9715 23.0661 95.2813 23.0812C92.3136 23.1336 91.1232 20.9733 90.5288 20.9838C89.9345 20.9942 87.2033 30.6084 83.7329 30.6706C82.5123 30.6943 82.029 29.1574 82.003 27.7633C81.9461 24.5565 82.7032 22.2248 83.3523 19.5641C83.5765 18.6464 83.8069 16.8841 85.0116 16.8597C85.5622 16.8476 85.892 17.3229 85.9041 17.9854C85.9426 20.1476 83.9916 24.21 84.0535 27.4981C84.0432 27.7861 84.1009 27.9588 84.2046 27.9586C85.8401 27.9258 88.9333 18.3333 89.6304 16.7873C90.0275 15.9369 90.8891 14.0233 92.1217 14C92.3732 14.015 92.6106 14.1231 92.7891 14.304C92.9676 14.485 93.0751 14.7262 93.0912 14.9823C93.1168 16.3845 92.099 16.4199 92.1284 18.0537C92.1539 19.46 93.0181 20.7105 94.8174 20.891C95.653 20.9342 96.7054 20.7132 96.7323 21.9693Z" fill="black"/>
<path fill-rule="evenodd" clip-rule="evenodd" d="M84.3668 18.9114C84.6211 18.9097 84.8676 19.0001 85.0626 19.1665C85.2574 19.333 85.3878 19.5646 85.4305 19.8201C85.4404 20.2063 85.3026 20.5812 85.0464 20.8659C83.9133 22.2292 80.0846 26.5225 77.4449 26.7658C76.505 26.8528 75.7151 26.4254 75.2496 25.1734C75.0422 24.6174 75.0378 22.8423 74.5059 22.8916C74.078 22.9286 73.4883 23.9262 73.2959 24.179C72.5561 25.1385 70.3637 27.3642 68.756 27.5117C67.82 27.5989 67.127 26.8015 67.0161 25.5545C66.7948 23.0443 68.8829 18.8246 71.5626 18.5747C72.8264 18.4591 73.59 19.4053 74.0979 19.3591C74.9378 19.2806 75.1911 17.1008 76.2232 17.001C76.36 16.995 76.4968 17.0166 76.6255 17.0646C76.7541 17.1127 76.8723 17.1862 76.9731 17.2809C77.0738 17.3756 77.1551 17.4897 77.2123 17.6165C77.2697 17.7434 77.3018 17.8805 77.3069 18.02C77.4578 19.7112 76.7278 21.1748 76.9078 23.1676C76.9649 23.7993 77.0588 24.6313 77.6547 24.5762C79.8544 24.3735 82.166 21.0393 83.3421 19.5842C83.5879 19.2361 83.954 18.9957 84.3668 18.9114ZM69.1222 24.735C69.1166 24.8932 69.1812 24.9809 69.3412 24.9665C70.1652 24.8874 72.6957 22.1219 72.6244 21.3272C72.5959 21.0094 72.1553 20.8427 71.7193 20.8875C70.4755 20.9998 69.0187 23.3949 69.1222 24.735Z" fill="black"/>
<path fill-rule="evenodd" clip-rule="evenodd" d="M68.9544 22.8147C68.9103 22.5778 68.7787 22.3672 68.5866 22.2264C68.5091 22.1443 68.4125 22.0834 68.3059 22.0493C68.1991 22.0153 68.0858 22.0092 67.9761 22.0315C67.8725 22.0531 67.7747 22.0979 67.6902 22.1627C67.6055 22.2275 67.5362 22.3107 67.487 22.4062L67.2369 22.8184C67.1046 23.0657 66.9574 23.3205 66.7919 23.5978C66.6264 23.8751 66.586 23.9725 66.5677 24.0099L65.6041 25.5875C65.2743 26.1332 64.8679 26.6268 64.3978 27.0526C64.1725 27.2881 63.8986 27.4698 63.5961 27.5846C63.5483 27.5846 63.5262 27.5846 63.5226 27.5846C63.4893 27.541 63.4678 27.4894 63.46 27.4348C63.4208 27.2363 63.406 27.0337 63.4159 26.8315C63.4453 26.528 63.4747 26.2357 63.5042 25.9659C63.6038 25.3636 63.7438 24.7689 63.9234 24.1861C64.1183 23.5453 64.3206 22.9346 64.5302 22.365L64.9863 21.0386C65.1356 20.659 65.2406 20.2628 65.2988 19.8582C65.4132 19.2984 65.4132 18.7206 65.2988 18.1608C65.2495 17.8938 65.1103 17.6527 64.9053 17.4789C64.7819 17.3704 64.6326 17.297 64.4725 17.2661C64.3124 17.2352 64.1471 17.2478 63.9933 17.3028C63.6364 17.4168 63.322 17.639 63.0923 17.9397C62.8201 18.2283 62.5039 18.5393 62.1398 18.8765C61.7757 19.2137 61.0365 19.4873 60.7644 19.3149C60.4922 19.1426 60.6099 18.6741 60.6872 18.3969C60.8584 17.7554 60.9814 17.1015 61.0549 16.4409C61.1551 15.8948 61.1551 15.3345 61.0549 14.7885C60.8563 13.9154 60.2458 13.9604 59.9921 14.039C59.756 14.1077 59.5377 14.2287 59.3527 14.3932C59.1677 14.5577 59.0206 14.7618 58.9219 14.9908C58.6404 15.5077 58.4288 16.061 58.293 16.6358C58.1573 17.2668 58.076 17.9088 58.0503 18.5543C58.0386 19.1058 58.0992 19.6565 58.2305 20.1917C57.9843 21.0306 57.6896 21.8539 57.3479 22.6573C56.9801 23.5828 56.5829 24.4784 56.1674 25.3177C55.7518 26.157 55.4318 26.8427 55.1045 27.401C55.0007 27.5946 54.973 27.821 55.0269 28.0346C55.0809 28.2482 55.2125 28.433 55.3951 28.5514C55.9063 28.8474 56.4983 28.4427 56.7006 28.1767C57.0911 27.5999 57.4402 26.995 57.7451 26.3669C58.1606 25.595 58.5725 24.7332 58.9771 23.8076C59.3448 22.9458 59.6501 22.099 59.9038 21.2821C60.368 21.3069 60.8331 21.2589 61.2829 21.1397C61.764 21.0221 62.2295 20.846 62.6693 20.6151C62.8272 20.5295 62.9806 20.4357 63.129 20.3341C62.9635 20.9186 62.7613 21.5444 62.5223 22.2076C62.1647 23.2163 61.8674 24.2461 61.6323 25.2914C61.3861 26.2732 61.371 27.3003 61.5881 28.2891C61.6299 28.5181 61.7199 28.7352 61.852 28.9254C61.984 29.1156 62.155 29.2744 62.3531 29.3907C62.6046 29.5215 62.8835 29.5884 63.1659 29.5856C63.3381 29.584 63.5095 29.5627 63.677 29.5219C64.217 29.3905 64.7251 29.1482 65.1702 28.8099C65.6642 28.4195 66.1133 27.9732 66.5088 27.4797C66.8766 26.9851 67.3215 26.3556 67.7923 25.6062C68.2082 24.9739 68.5664 24.3041 68.8624 23.6053C68.9868 23.362 69.0194 23.0808 68.9544 22.8147Z" fill="black"/>
<path fill-rule="evenodd" clip-rule="evenodd" d="M117.007 19.7013C117.238 19.7093 117.457 19.8049 117.621 19.9693C117.732 20.0636 117.821 20.1815 117.882 20.315C117.943 20.4484 117.975 20.594 117.975 20.7413C117.949 21.0986 117.786 21.4318 117.522 21.6689C115.315 23.8139 110.576 27.8564 106.193 27.8049C105.748 27.809 105.306 27.7205 104.896 27.5445C104.485 27.3685 104.115 27.1091 103.807 26.7818C103.499 26.4547 103.261 26.0666 103.106 25.6415C102.951 25.2164 102.882 24.7632 102.905 24.3097C102.952 21.4464 106.278 16.3042 109.262 16.3447C110.298 16.3573 111.395 17.4201 111.372 18.7779C111.331 21.4616 108.288 23.0035 106.352 22.9813C106.183 22.9747 106.015 23.002 105.856 23.0618C105.698 23.1216 105.552 23.2127 105.428 23.3298C105.303 23.447 105.203 23.5878 105.132 23.7443C105.061 23.9009 105.022 24.0699 105.015 24.2419C105.013 24.45 105.053 24.6562 105.132 24.8478C105.211 25.0393 105.328 25.2121 105.476 25.3557C105.623 25.4992 105.798 25.6104 105.989 25.6824C106.181 25.7545 106.385 25.7857 106.589 25.7745C109.999 25.8184 113.653 22.5353 115.893 20.2926C116.181 19.9624 116.577 19.7518 117.007 19.7013ZM108.833 18.8091C108.383 18.8063 107.262 19.8149 107.257 20.2241C107.255 20.2477 107.258 20.2714 107.265 20.2937C107.273 20.3159 107.286 20.3361 107.303 20.3526C107.319 20.3691 107.339 20.3817 107.361 20.3892C107.383 20.3968 107.407 20.3992 107.43 20.3964C108.073 20.4021 109.005 19.215 109.01 18.9819C109.011 18.9581 109.008 18.9342 109 18.9119C108.991 18.8897 108.978 18.8696 108.961 18.8531C108.944 18.8366 108.924 18.824 108.902 18.8165C108.88 18.8089 108.856 18.8063 108.833 18.8091Z" fill="black"/>
<defs>
<linearGradient id="paint0_linear_10_115" x1="81.5396" y1="29.0705" x2="48.8652" y2="33.354" gradientUnits="userSpaceOnUse">
<stop stop-color="#309AFC"/>
<stop offset="0.333333" stop-color="#5754FF"/>
<stop offset="0.666667" stop-color="#FF51A4"/>
<stop offset="1" stop-color="#FF7C51"/>
</linearGradient>
<linearGradient id="paint1_linear_10_115" x1="81.5396" y1="29.0705" x2="48.8652" y2="33.354" gradientUnits="userSpaceOnUse">
<stop stop-color="#309AFC"/>
<stop offset="0.333333" stop-color="#5754FF"/>
<stop offset="0.666667" stop-color="#FF51A4"/>
<stop offset="1" stop-color="#FF7C51"/>
</linearGradient>
<linearGradient id="paint2_linear_10_115" x1="48.8851" y1="13" x2="48.8851" y2="47.0543" gradientUnits="userSpaceOnUse">
<stop stop-color="#309AFC"/>
<stop offset="0.33" stop-color="#5754FF"/>
<stop offset="0.67" stop-color="#FF51A4"/>
<stop offset="1" stop-color="#FF7C51"/>
</linearGradient>
</defs>
</svg>
